<svg width="178" height="39" viewBox="0 0 178 39" fill="none" xmlns="http://www.w3.org/2000/svg">
<path d="M9.22288 35.75L11.7958 24.3344L3.16663 16.6562L14.5666 15.6406L19 4.875L23.4333 15.6406L34.8333 16.6562L26.2041 24.3344L28.777 35.75L19 29.6969L9.22288 35.75Z" fill="#3E7BC2"/>
<path d="M44.2229 35.75L46.7958 24.3344L38.1666 16.6562L49.5666 15.6406L54 4.875L58.4333 15.6406L69.8333 16.6562L61.2041 24.3344L63.777 35.75L54 29.6969L44.2229 35.75Z" fill="#3E7BC2"/>
<path d="M76.2229 35.75L78.7958 24.3344L70.1666 16.6562L81.5666 15.6406L86 4.875L90.4333 15.6406L101.833 16.6562L93.2041 24.3344L95.777 35.75L86 29.6969L76.2229 35.75Z" fill="#3E7BC2"/>
<path d="M114.223 35.75L116.796 24.3344L108.167 16.6562L119.567 15.6406L124 4.875L128.433 15.6406L139.833 16.6562L131.204 24.3344L133.777 35.75L124 29.6969L114.223 35.75Z" fill="#3E7BC2"/>
<path d="M149.223 35.75L151.796 24.3344L143.167 16.6562L154.567 15.6406L159 4.875L163.433 15.6406L174.833 16.6562L166.204 24.3344L168.777 35.75L159 29.6969L149.223 35.75Z" fill="#9DC2EE"/>
</svg>
